<svg width="40" height="40" viewBox="0 0 40 40" fill="none" xmlns="http://www.w3.org/2000/svg">
<circle opacity="0.15" cx="20" cy="20" r="20" fill="#DA2535"/>
<path d="M25 10H15C12.2386 10 10 12.2386 10 15V25C10 27.7614 12.2386 30 15 30H25C27.7614 30 30 27.7614 30 25V15C30 12.2386 27.7614 10 25 10Z" stroke="#DA2535" stroke-width="1.4" stroke-linecap="round" stroke-linejoin="round"/>
<path d="M24.0002 19.3698C24.1236 20.2021 23.9815 21.052 23.594 21.7988C23.2065 22.5456 22.5933 23.1512 21.8418 23.5295C21.0903 23.9077 20.2386 24.0394 19.408 23.9057C18.5773 23.7721 17.81 23.3799 17.215 22.785C16.6201 22.1901 16.2279 21.4227 16.0943 20.592C15.9606 19.7614 16.0923 18.9097 16.4705 18.1582C16.8488 17.4067 17.4544 16.7936 18.2012 16.4061C18.948 16.0186 19.7979 15.8764 20.6302 15.9998C21.4791 16.1257 22.265 16.5213 22.8719 17.1281C23.4787 17.735 23.8743 18.5209 24.0002 19.3698Z" stroke="#DA2535" stroke-width="1.4" stroke-linecap="round" stroke-linejoin="round"/>
<path d="M25.5 14.5H25.51" stroke="#DA2535" stroke-width="1.4" stroke-linecap="round" stroke-linejoin="round"/>
</svg>
