<svg width="40" height="40" viewBox="0 0 40 40" fill="none" xmlns="http://www.w3.org/2000/svg">
<circle opacity="0.15" cx="20" cy="20" r="20" fill="#DA2535"/>
<path d="M30.54 14.42C30.4212 13.9454 30.1793 13.5106 29.8387 13.1594C29.498 12.8082 29.0708 12.5532 28.6 12.42C26.88 12 20 12 20 12C20 12 13.12 12 11.4 12.46C10.9292 12.5932 10.502 12.8482 10.1613 13.1994C9.82072 13.5506 9.57879 13.9854 9.46 14.46C9.14521 16.2056 8.99124 17.9763 9 19.75C8.98878 21.537 9.14277 23.3213 9.46 25.08C9.59096 25.5398 9.83831 25.9581 10.1781 26.2945C10.518 26.6308 10.9388 26.8738 11.4 27C13.12 27.46 20 27.46 20 27.46C20 27.46 26.88 27.46 28.6 27C29.0708 26.8668 29.498 26.6118 29.8387 26.2606C30.1793 25.9094 30.4212 25.4746 30.54 25C30.8524 23.2676 31.0063 21.5103 31 19.75C31.0112 17.963 30.8572 16.1787 30.54 14.42V14.42Z" stroke="#DA2535" stroke-width="1.4" stroke-linecap="round" stroke-linejoin="round"/>
<path d="M17.75 23.02L23.5 19.75L17.75 16.48V23.02Z" stroke="#DA2535" stroke-width="1.4" stroke-linecap="round" stroke-linejoin="round"/>
</svg>
